<svg width="31" height="36" viewBox="0 0 31 36" fill="none" xmlns="http://www.w3.org/2000/svg">
<path d="M28.982 0.00373737H1.045C0.791952 -0.0174975 0.54068 0.0614499 0.345247 0.223593C0.149815 0.385737 0.0258409 0.618118 0 0.870737V33.3487C0.0153527 33.6888 0.130917 34.0167 0.332159 34.2913C0.533401 34.5658 0.811333 34.7747 1.131 34.8917C1.47922 35.0383 1.85659 35.1025 2.23369 35.0793C2.61079 35.056 2.97742 34.946 3.305 34.7577L15.01 27.7977L26.715 34.7587C27.0428 34.9465 27.4094 35.0561 27.7865 35.0792C28.1635 35.1022 28.5408 35.0381 28.889 34.8917C29.2106 34.7763 29.4907 34.568 29.694 34.2934C29.8972 34.0188 30.0145 33.69 30.031 33.3487V0.870737C30.0052 0.617364 29.8806 0.384346 29.6843 0.222093C29.488 0.0598394 29.2357 -0.0186023 28.982 0.00373737Z" fill="#1C4870"/>
</svg>
