<svg width="18" height="18" viewBox="0 0 18 18" fill="none" xmlns="http://www.w3.org/2000/svg">
<path d="M11.85 1.6575C11.5425 1.35 11.01 1.56 11.01 1.9875V4.605C11.01 5.7 11.94 6.6075 13.0725 6.6075C13.785 6.615 14.775 6.615 15.6225 6.615C16.05 6.615 16.275 6.1125 15.975 5.8125C14.895 4.725 12.96 2.7675 11.85 1.6575Z" fill="#B7B7B7"/>
<path d="M15.375 7.6425H13.2075C11.43 7.6425 9.9825 6.195 9.9825 4.4175V2.25C9.9825 1.8375 9.645 1.5 9.2325 1.5H6.0525C3.7425 1.5 1.875 3 1.875 5.6775V12.3225C1.875 15 3.7425 16.5 6.0525 16.5H11.9475C14.2575 16.5 16.125 15 16.125 12.3225V8.3925C16.125 7.98 15.7875 7.6425 15.375 7.6425ZM8.625 13.3125H5.625C5.3175 13.3125 5.0625 13.0575 5.0625 12.75C5.0625 12.4425 5.3175 12.1875 5.625 12.1875H8.625C8.9325 12.1875 9.1875 12.4425 9.1875 12.75C9.1875 13.0575 8.9325 13.3125 8.625 13.3125ZM10.125 10.3125H5.625C5.3175 10.3125 5.0625 10.0575 5.0625 9.75C5.0625 9.4425 5.3175 9.1875 5.625 9.1875H10.125C10.4325 9.1875 10.6875 9.4425 10.6875 9.75C10.6875 10.0575 10.4325 10.3125 10.125 10.3125Z" fill="#B7B7B7"/>
</svg>
